<svg width="16" height="16" viewBox="0 0 16 16" fill="none" xmlns="http://www.w3.org/2000/svg">
<g id="dataflow-04" clip-path="url(#clip0_7142_86992)">
<path id="Icon" d="M2.66683 12V11.8667C2.66683 10.7466 2.66683 10.1865 2.88482 9.75873C3.07656 9.3824 3.38252 9.07644 3.75885 8.88469C4.18667 8.66671 4.74672 8.66671 5.86683 8.66671H10.1335C11.2536 8.66671 11.8137 8.66671 12.2415 8.88469C12.6178 9.07644 12.9238 9.3824 13.1155 9.75873C13.3335 10.1865 13.3335 10.7466 13.3335 11.8667V12M2.66683 12C1.93045 12 1.3335 12.597 1.3335 13.3334C1.3335 14.0698 1.93045 14.6667 2.66683 14.6667C3.40321 14.6667 4.00016 14.0698 4.00016 13.3334C4.00016 12.597 3.40321 12 2.66683 12ZM13.3335 12C12.5971 12 12.0002 12.597 12.0002 13.3334C12.0002 14.0698 12.5971 14.6667 13.3335 14.6667C14.0699 14.6667 14.6668 14.0698 14.6668 13.3334C14.6668 12.597 14.0699 12 13.3335 12ZM8.00016 12C7.26378 12 6.66683 12.597 6.66683 13.3334C6.66683 14.0698 7.26378 14.6667 8.00016 14.6667C8.73654 14.6667 9.3335 14.0698 9.3335 13.3334C9.3335 12.597 8.73654 12 8.00016 12ZM8.00016 12V5.33337M4.00016 5.33337H12.0002C12.6214 5.33337 12.932 5.33337 13.1771 5.23188C13.5038 5.09656 13.7633 4.83699 13.8987 4.51029C14.0002 4.26526 14.0002 3.95463 14.0002 3.33337C14.0002 2.71212 14.0002 2.40149 13.8987 2.15646C13.7633 1.82976 13.5038 1.57019 13.1771 1.43487C12.932 1.33337 12.6214 1.33337 12.0002 1.33337H4.00016C3.37891 1.33337 3.06828 1.33337 2.82325 1.43487C2.49655 1.57019 2.23698 1.82976 2.10166 2.15646C2.00016 2.40149 2.00016 2.71212 2.00016 3.33337C2.00016 3.95463 2.00016 4.26526 2.10166 4.51029C2.23698 4.83699 2.49655 5.09656 2.82325 5.23188C3.06828 5.33337 3.37891 5.33337 4.00016 5.33337Z" stroke="#667085" stroke-width="1.5" stroke-linecap="round" stroke-linejoin="round"/>
</g>
<defs>
<clipPath id="clip0_7142_86992">
<rect width="16" height="16" fill="white"/>
</clipPath>
</defs>
</svg>
