<svg width="13" height="12" viewBox="0 0 13 12" fill="none" xmlns="http://www.w3.org/2000/svg">
<g id="magic-wand-01" clip-path="url(#clip0_8701_2956)">
<path id="Icon" d="M6.99992 7L5.49992 5.5M8.0051 1.75V1M9.97477 2.53033L10.5051 2M9.97477 6.5L10.5051 7.03033M6.0051 2.53033L5.47477 2M10.7551 4.5H11.5051M3.56561 10.4343L8.18424 5.81569C8.38225 5.61768 8.48125 5.51867 8.51835 5.40451C8.55097 5.30409 8.55097 5.19591 8.51835 5.09549C8.48125 4.98133 8.38225 4.88232 8.18424 4.68431L7.81561 4.31569C7.6176 4.11768 7.5186 4.01867 7.40443 3.98158C7.30401 3.94895 7.19584 3.94895 7.09542 3.98158C6.98125 4.01867 6.88225 4.11768 6.68424 4.31569L2.06561 8.93431C1.8676 9.13232 1.7686 9.23133 1.7315 9.34549C1.69887 9.44591 1.69887 9.55409 1.7315 9.65451C1.7686 9.76867 1.8676 9.86768 2.06561 10.0657L2.43424 10.4343C2.63225 10.6323 2.73125 10.7313 2.84542 10.7684C2.94584 10.8011 3.05401 10.8011 3.15443 10.7684C3.2686 10.7313 3.3676 10.6323 3.56561 10.4343Z" stroke="#4E6BD7" stroke-width="1.5" stroke-linecap="round" stroke-linejoin="round"/>
</g>
<defs>
<clipPath id="clip0_8701_2956">
<rect width="12" height="12" fill="white" transform="translate(0.5)"/>
</clipPath>
</defs>
</svg>
