<svg width="16" height="16" viewBox="0 0 16 16" fill="none" xmlns="http://www.w3.org/2000/svg">
<g id="copy-03" clip-path="url(#clip0_8143_3472)">
<path id="Icon" d="M5.33325 5.33325V3.46659C5.33325 2.71985 5.33325 2.34648 5.47858 2.06126C5.60641 1.81038 5.81038 1.60641 6.06126 1.47858C6.34648 1.33325 6.71985 1.33325 7.46659 1.33325H12.5333C13.28 1.33325 13.6534 1.33325 13.9386 1.47858C14.1895 1.60641 14.3934 1.81038 14.5213 2.06126C14.6666 2.34648 14.6666 2.71985 14.6666 3.46659V8.53325C14.6666 9.27999 14.6666 9.65336 14.5213 9.93857C14.3934 10.1895 14.1895 10.3934 13.9386 10.5213C13.6534 10.6666 13.28 10.6666 12.5333 10.6666H10.6666M3.46659 14.6666H8.53325C9.27999 14.6666 9.65336 14.6666 9.93857 14.5213C10.1895 14.3934 10.3934 14.1895 10.5213 13.9386C10.6666 13.6534 10.6666 13.28 10.6666 12.5333V7.46659C10.6666 6.71985 10.6666 6.34648 10.5213 6.06126C10.3934 5.81038 10.1895 5.60641 9.93857 5.47858C9.65336 5.33325 9.27999 5.33325 8.53325 5.33325H3.46659C2.71985 5.33325 2.34648 5.33325 2.06126 5.47858C1.81038 5.60641 1.60641 5.81038 1.47858 6.06126C1.33325 6.34648 1.33325 6.71985 1.33325 7.46659V12.5333C1.33325 13.28 1.33325 13.6534 1.47858 13.9386C1.60641 14.1895 1.81038 14.3934 2.06126 14.5213C2.34648 14.6666 2.71985 14.6666 3.46659 14.6666Z" stroke="#667085" stroke-width="1.5" stroke-linecap="round" stroke-linejoin="round"/>
</g>
<defs>
<clipPath id="clip0_8143_3472">
<rect width="16" height="16" fill="white"/>
</clipPath>
</defs>
</svg>
