<svg width="16" height="16" viewBox="0 0 16 16" fill="none" xmlns="http://www.w3.org/2000/svg">
<g id="dots-grid">
<g id="Icon">
<path d="M10.6666 4.00008C11.0348 4.00008 11.3333 3.7016 11.3333 3.33341C11.3333 2.96522 11.0348 2.66675 10.6666 2.66675C10.2984 2.66675 9.99992 2.96522 9.99992 3.33341C9.99992 3.7016 10.2984 4.00008 10.6666 4.00008Z" stroke="#475467" stroke-width="1.33333" stroke-linecap="round" stroke-linejoin="round"/>
<path d="M10.6666 8.66675C11.0348 8.66675 11.3333 8.36827 11.3333 8.00008C11.3333 7.63189 11.0348 7.33341 10.6666 7.33341C10.2984 7.33341 9.99992 7.63189 9.99992 8.00008C9.99992 8.36827 10.2984 8.66675 10.6666 8.66675Z" stroke="#475467" stroke-width="1.33333" stroke-linecap="round" stroke-linejoin="round"/>
<path d="M10.6666 13.3334C11.0348 13.3334 11.3333 13.0349 11.3333 12.6667C11.3333 12.2986 11.0348 12.0001 10.6666 12.0001C10.2984 12.0001 9.99992 12.2986 9.99992 12.6667C9.99992 13.0349 10.2984 13.3334 10.6666 13.3334Z" stroke="#475467" stroke-width="1.33333" stroke-linecap="round" stroke-linejoin="round"/>
<path d="M5.99992 4.00008C6.36811 4.00008 6.66659 3.7016 6.66659 3.33341C6.66659 2.96522 6.36811 2.66675 5.99992 2.66675C5.63173 2.66675 5.33325 2.96522 5.33325 3.33341C5.33325 3.7016 5.63173 4.00008 5.99992 4.00008Z" stroke="#475467" stroke-width="1.33333" stroke-linecap="round" stroke-linejoin="round"/>
<path d="M5.99992 8.66675C6.36811 8.66675 6.66659 8.36827 6.66659 8.00008C6.66659 7.63189 6.36811 7.33341 5.99992 7.33341C5.63173 7.33341 5.33325 7.63189 5.33325 8.00008C5.33325 8.36827 5.63173 8.66675 5.99992 8.66675Z" stroke="#475467" stroke-width="1.33333" stroke-linecap="round" stroke-linejoin="round"/>
<path d="M5.99992 13.3334C6.36811 13.3334 6.66659 13.0349 6.66659 12.6667C6.66659 12.2986 6.36811 12.0001 5.99992 12.0001C5.63173 12.0001 5.33325 12.2986 5.33325 12.6667C5.33325 13.0349 5.63173 13.3334 5.99992 13.3334Z" stroke="#475467" stroke-width="1.33333" stroke-linecap="round" stroke-linejoin="round"/>
</g>
</g>
</svg>
