<svg width="20" height="20" viewBox="0 0 20 20" fill="none" xmlns="http://www.w3.org/2000/svg">
<g id="play">
<path id="Icon" d="M4.16669 4.15803C4.16669 3.34873 4.16669 2.94407 4.33543 2.72101C4.48243 2.52669 4.70712 2.40644 4.95035 2.39192C5.22955 2.37525 5.56624 2.59971 6.23962 3.04863L15.0026 8.89061C15.559 9.26154 15.8372 9.44701 15.9341 9.68078C16.0189 9.88516 16.0189 10.1149 15.9341 10.3192C15.8372 10.553 15.559 10.7385 15.0026 11.1094L6.23962 16.9514C5.56624 17.4003 5.22955 17.6248 4.95035 17.6081C4.70712 17.5936 4.48243 17.4733 4.33543 17.279C4.16669 17.0559 4.16669 16.6513 4.16669 15.842V4.15803Z" stroke="#475467" stroke-width="1.66667" stroke-linecap="round" stroke-linejoin="round"/>
</g>
</svg>
