<svg width="20" height="20" viewBox="0 0 20 20" fill="none" xmlns="http://www.w3.org/2000/svg">
<g id="left-indent-02">
<path id="Icon" d="M17.5 7.70833H10M17.5 3.33334L10 3.33333M17.5 12.2917H2.5M17.5 16.6667H2.5M3.56667 2.46667L6.78889 4.88333C7.03013 5.06427 7.15075 5.15473 7.19389 5.26564C7.23167 5.36278 7.23167 5.47056 7.19389 5.5677C7.15075 5.6786 7.03013 5.76907 6.78889 5.95L3.56667 8.36667C3.22335 8.62416 3.05169 8.7529 2.90801 8.74991C2.78297 8.74731 2.66571 8.68868 2.5886 8.59021C2.5 8.47705 2.5 8.26248 2.5 7.83334V3C2.5 2.57086 2.5 2.35628 2.5886 2.24313C2.66571 2.14465 2.78297 2.08602 2.90801 2.08342C3.05169 2.08044 3.22335 2.20918 3.56667 2.46667Z" stroke="#475467" stroke-width="1.66667" stroke-linecap="round" stroke-linejoin="round"/>
</g>
</svg>
