<svg width="22" height="22" viewBox="0 0 22 22" fill="none" xmlns="http://www.w3.org/2000/svg">
<g id="after_effects">
<rect id="frame" x="0.5" y="0.5" width="21" height="21" fill="#D097F9"/>
<rect id="bg" x="1.25" y="1.25" width="19.5" height="19.5" fill="#1F063E"/>
<path id="after_effects_2" d="M6.48743 13.2897L5.78248 16.1406C5.7679 16.2187 5.73875 16.2489 5.65024 16.2489H4.34342C4.25491 16.2489 4.24034 16.2176 4.25491 16.1071L6.78108 6.62658C6.82481 6.4535 6.85501 6.31727 6.86959 5.84492C6.86959 5.78238 6.89874 5.75 6.94352 5.75H8.80847C8.86678 5.75 8.89593 5.76563 8.91155 5.84492L11.7459 16.1227C11.7605 16.202 11.7459 16.2489 11.672 16.2489H10.2038C10.1309 16.2489 10.0861 16.2187 10.0715 16.1562L9.33744 13.2897H6.48743ZM7.91192 7.25303L6.85709 11.7398L8.98548 11.7409L7.91192 7.25303ZM13.7556 12.7169C13.7702 14.0077 14.3429 14.8743 15.6945 14.8743C16.2235 14.8743 16.6764 14.7994 17.1461 14.5783C17.2044 14.5471 17.2491 14.5627 17.2491 14.6409V15.8379C17.2491 15.9329 17.22 15.9798 17.1606 16.0267C16.691 16.279 15.875 16.2489 15.5 16.2489C13.1509 16.2489 12.1406 14.5303 12.1406 12.4511C12.1406 10.1988 13.2277 8.35629 15.1364 8.35629C17.0742 8.35629 17.75 10.1039 17.75 11.522C17.75 11.9788 17.7208 12.3562 17.6771 12.5304C17.6625 12.6086 17.6334 12.6365 17.5594 12.6521C17.3835 12.6834 16.8545 12.7146 16.0767 12.7146L13.7556 12.7169ZM15.5623 11.4048C16.0173 11.4048 16.1787 11.4048 16.2235 11.3892C16.2235 10.6542 15.9894 9.75101 15.0781 9.75101C14.2263 9.75101 13.8587 10.5539 13.7712 11.4048H15.5623Z" fill="#D097F9"/>
</g>
</svg>
