<svg width="18" height="19" viewBox="0 0 18 19" fill="none" xmlns="http://www.w3.org/2000/svg">
<g id="atlassian">
<path id="vector" fill-rule="evenodd" clip-rule="evenodd" d="M5.33891 8.56306C5.23015 8.42064 5.05492 8.34546 4.87685 8.36482C4.69878 8.38418 4.54377 8.49527 4.46812 8.65773L0.0556683 17.4861C-0.0260609 17.6497 -0.0173244 17.844 0.0787581 17.9996C0.174841 18.1551 0.34457 18.2498 0.527337 18.2499H6.67145C6.8725 18.2545 7.0574 18.1402 7.14312 17.9581C8.46848 15.2175 7.66526 11.0503 5.33891 8.56306Z" fill="url(#paint0_linear_8478_3201)"/>
<path id="vector_2" fill-rule="evenodd" clip-rule="evenodd" d="M8.5754 0.533215C6.33866 3.97727 6.08051 8.34579 7.89603 12.0296L10.8582 17.9581C10.9475 18.1369 11.1301 18.2498 11.3298 18.2499H17.4728C17.6556 18.2498 17.8253 18.1551 17.9214 17.9995C18.0175 17.844 18.0262 17.6497 17.9445 17.4861C17.9445 17.4861 9.68009 0.943664 9.4724 0.529903C9.3886 0.358043 9.21395 0.249298 9.02286 0.250003C8.83177 0.250709 8.65792 0.360741 8.5754 0.533215Z" fill="#2684FF"/>
</g>
<defs>
<linearGradient id="paint0_linear_8478_3201" x1="7.75711" y1="9.92552" x2="1.56809" y2="16.5692" gradientUnits="userSpaceOnUse">
<stop stop-color="#0052CC"/>
<stop offset="0.923" stop-color="#2684FF"/>
</linearGradient>
</defs>
</svg>
