<svg width="24" height="24" viewBox="0 0 24 24" fill="none" xmlns="http://www.w3.org/2000/svg">
<g id="atom">
<circle id="bg" cx="12" cy="12" r="10.5" fill="url(#paint0_linear_7113_46544)"/>
<g id="atom_2">
<path fill-rule="evenodd" clip-rule="evenodd" d="M8.61881 11.8118C8.35662 11.1724 8.14472 10.5483 7.98566 9.95602C7.67795 10.0229 7.389 10.0994 7.12163 10.1845C6.4826 10.3879 5.98405 10.6349 5.64753 10.9033C5.31071 11.1719 5.16572 11.4362 5.15367 11.6803C5.1434 11.8882 5.22701 12.1182 5.44258 12.3679C5.65968 12.6193 5.99683 12.8731 6.44894 13.1128C6.6078 13.1971 6.66752 13.3927 6.58232 13.5498C6.49712 13.7068 6.29927 13.7659 6.14041 13.6816C5.64525 13.4191 5.23343 13.1197 4.9461 12.787C4.65725 12.4525 4.48098 12.0672 4.50164 11.6488C4.526 11.1553 4.81709 10.7363 5.23769 10.4009C5.6586 10.0652 6.23883 9.78744 6.9216 9.57014C7.20599 9.47962 7.51116 9.39867 7.83424 9.32808C7.76915 9.02197 7.71972 8.72685 7.68633 8.44528C7.60279 7.74091 7.6175 7.10366 7.75159 6.58569C7.88559 6.0681 8.15021 5.63232 8.59417 5.40552C8.98592 5.20538 9.4326 5.21206 9.87773 5.34798C10.321 5.48334 10.7871 5.75308 11.2537 6.1191C11.3949 6.22989 11.4186 6.43288 11.3065 6.57251C11.1945 6.71214 10.9892 6.73552 10.848 6.62474C10.419 6.28826 10.0248 6.06842 9.6851 5.96469C9.34724 5.86153 9.08826 5.87962 8.89384 5.97895C8.6743 6.0911 8.49132 6.33125 8.38401 6.74575C8.2768 7.15987 8.25651 7.71087 8.33469 8.37011C8.36609 8.63487 8.41302 8.91423 8.47527 9.20558C9.09461 9.1032 9.76578 9.03593 10.4721 9.00848C11.2913 7.98251 12.1513 7.13922 12.9623 6.54883C13.5399 6.12835 14.1072 5.82551 14.6288 5.68427C15.1499 5.54313 15.6639 5.55472 16.083 5.82382C16.456 6.06331 16.6717 6.45487 16.7715 6.9095C16.871 7.36238 16.8622 7.90266 16.7679 8.49165C16.7397 8.66769 16.5725 8.78779 16.3944 8.75991C16.2164 8.73202 16.0949 8.5667 16.1231 8.39066C16.21 7.84846 16.2101 7.39456 16.1336 7.04649C16.0575 6.70016 15.9125 6.48397 15.7274 6.36514C15.5202 6.23208 15.2186 6.19377 14.8012 6.3068C14.3842 6.41972 13.89 6.67507 13.3494 7.0686C12.7012 7.54045 12.0072 8.19568 11.3257 8.99487C11.5961 8.99664 11.8704 9.00409 12.1478 9.01748C14.1572 9.11446 15.9761 9.50571 17.2946 10.0707C17.9528 10.3528 18.5029 10.6851 18.8887 11.0597C19.2743 11.4341 19.5227 11.879 19.4984 12.3725C19.478 12.7856 19.2697 13.1482 18.956 13.4509C18.644 13.752 18.2141 14.0086 17.7064 14.2216C17.5405 14.2912 17.3489 14.2147 17.2784 14.0506C17.208 13.8865 17.2855 13.6971 17.4514 13.6274C17.9139 13.4334 18.2654 13.2155 18.5 12.989C18.7328 12.7643 18.8362 12.5465 18.8463 12.3411C18.8584 12.097 18.7401 11.82 18.4313 11.5203C18.1229 11.2208 17.651 10.9269 17.035 10.663C15.8055 10.1361 14.0676 9.75636 12.1159 9.66217C11.6661 9.64046 11.226 9.63494 10.7995 9.64427C10.5271 9.99784 10.2592 10.3734 9.99979 10.7684C9.76223 11.1301 9.54258 11.4916 9.34149 11.8493C9.51586 12.254 9.71136 12.6655 9.92762 13.0793C10.8246 14.7958 11.8955 16.2013 12.8908 17.0885C13.3894 17.533 13.8557 17.8354 14.2593 17.9885C14.6633 18.1418 14.9673 18.1332 15.1868 18.021C15.3983 17.913 15.5756 17.6866 15.6845 17.2993C15.7935 16.9116 15.8232 16.3953 15.7618 15.7746C15.6391 14.5354 15.1603 12.9496 14.3473 11.3029C14.2682 11.1427 14.3354 10.9495 14.4974 10.8713C14.6594 10.7931 14.8548 10.8595 14.9339 11.0197C15.7712 12.7155 16.2793 14.3766 16.4115 15.7118C16.4774 16.3783 16.4515 16.9811 16.3134 17.4722C16.1752 17.9638 15.9138 18.3761 15.4865 18.5944C15.0426 18.8212 14.53 18.7825 14.0255 18.5911C13.5206 18.3996 12.9864 18.0428 12.4537 17.5679C11.3863 16.6164 10.2712 15.1428 9.34765 13.3756C9.20844 13.1092 9.07724 12.8432 8.95425 12.5786C8.46427 13.5591 8.12268 14.4915 7.94372 15.2988C7.8 15.9472 7.76509 16.4975 7.83036 16.9201C7.89569 17.343 8.05376 17.5999 8.261 17.7329C8.45593 17.8581 8.73345 17.8994 9.11351 17.81C9.49451 17.7203 9.94694 17.5054 10.446 17.1655C10.5945 17.0644 10.7977 17.1014 10.9 17.2482C11.0022 17.395 10.9648 17.596 10.8163 17.6971C10.2786 18.0633 9.75125 18.3234 9.26462 18.4379C8.77704 18.5526 8.29902 18.527 7.90546 18.2743C7.48636 18.0052 7.26661 17.5457 7.18503 17.0175C7.1034 16.489 7.15249 15.8534 7.30605 15.1606C7.52782 14.1602 7.97568 13.0042 8.61881 11.8118ZM9.03349 11.0837C8.87296 10.6539 8.73784 10.2357 8.6286 9.83473C9.0471 9.76707 9.49246 9.71576 9.95903 9.68282C9.78704 9.91995 9.61783 10.1649 9.4523 10.4169C9.30637 10.6391 9.1667 10.8616 9.03349 11.0837Z" fill="white"/>
<path d="M12.03 12.9132C12.5451 12.9132 12.9626 12.5004 12.9626 11.9912C12.9626 11.4819 12.5451 11.0691 12.03 11.0691C11.515 11.0691 11.0975 11.4819 11.0975 11.9912C11.0975 12.5004 11.515 12.9132 12.03 12.9132Z" fill="white"/>
</g>
</g>
<defs>
<linearGradient id="paint0_linear_7113_46544" x1="12" y1="1.5" x2="12" y2="22.5" gradientUnits="userSpaceOnUse">
<stop stop-color="#B2E299"/>
<stop offset="1" stop-color="#03A171"/>
</linearGradient>
</defs>
</svg>
