<svg width="18" height="22" viewBox="0 0 18 22" fill="none" xmlns="http://www.w3.org/2000/svg">
<g id="bamboo">
<path id="vector" fill-rule="evenodd" clip-rule="evenodd" d="M17.4323 12.4366H13.1025C12.8201 12.4333 12.5785 12.6404 12.5362 12.922C12.2902 14.6963 10.7845 16.0161 9.00781 16.0145L10.1802 21.4143C14.4276 20.8548 17.6967 17.3564 17.9986 13.0476C18.0096 12.8894 17.9549 12.7336 17.8474 12.6177C17.74 12.5018 17.5896 12.4362 17.4323 12.4366Z" fill="#2684FF"/>
<path id="vector_2" fill-rule="evenodd" clip-rule="evenodd" d="M9.93946 12.2995L16.1693 6.89971C16.2912 6.79129 16.3611 6.63529 16.3611 6.47138C16.3611 6.30747 16.2912 6.15146 16.1693 6.04305L9.93946 0.634688C9.77136 0.491614 9.53632 0.459633 9.33663 0.552665C9.13694 0.645697 9.00873 0.846912 9.00781 1.06873V11.8655C9.00873 12.0873 9.13694 12.2885 9.33663 12.3815C9.53632 12.4746 9.77136 12.4426 9.93946 12.2995Z" fill="#2684FF"/>
<path id="vector_3" fill-rule="evenodd" clip-rule="evenodd" d="M0.0854492 13.6159C0.6813 18.1268 4.49543 21.4969 9.0083 21.5V16.0145C7.04731 16.0145 5.4563 14.414 5.45162 12.4365L0.0854492 13.6159Z" fill="url(#paint0_linear_8478_5832)"/>
<path id="vector_4" fill-rule="evenodd" clip-rule="evenodd" d="M0 12.3508V12.4365H5.45112C5.45581 10.4591 7.04681 8.85853 9.0078 8.85854L7.83829 3.45874C3.39505 4.04258 0.0540542 7.83276 0 12.3508Z" fill="url(#paint1_linear_8478_5832)"/>
</g>
<defs>
<linearGradient id="paint0_linear_8478_5832" x1="4.54829" y1="3.52729" x2="4.54829" y2="15.9003" gradientUnits="userSpaceOnUse">
<stop stop-color="#0052CC"/>
<stop offset="1" stop-color="#2684FF"/>
</linearGradient>
<linearGradient id="paint1_linear_8478_5832" x1="4.50532" y1="3.52727" x2="4.50532" y2="15.9003" gradientUnits="userSpaceOnUse">
<stop stop-color="#0052CC"/>
<stop offset="1" stop-color="#2684FF"/>
</linearGradient>
</defs>
</svg>
