<svg width="24" height="24" viewBox="0 0 24 24" fill="none" xmlns="http://www.w3.org/2000/svg">
<g id="envato">
<path id="bg" d="M12 1.5C6.20859 1.5 1.5 6.20859 1.5 12C1.5 17.7914 6.20859 22.5 12 22.5C17.7914 22.5 22.5 17.7914 22.5 12C22.5 6.20859 17.7914 1.5 12 1.5Z" fill="#81B441"/>
<path id="envato_2" d="M15.7783 5.97583C10.6874 6.31261 9.15027 11.062 9.0201 13.4919C9.0201 13.8917 7.73635 13.0825 8.49992 9.59386C8.56538 9.29479 8.49992 8.93761 8.49992 8.93761C5.84879 11.2695 6.07677 15.6785 9.3359 17.471C11.8623 18.8606 15.1467 17.9763 16.5993 15.3867C18.3047 12.4182 16.7888 6.54427 15.7783 5.97583Z" fill="white"/>
</g>
</svg>
