<svg width="24" height="24" viewBox="0 0 24 24" fill="none" xmlns="http://www.w3.org/2000/svg">
<g id="fedora">
<path id="vector" d="M22.5 12.0003C22.5 6.20121 17.7989 1.5 11.9998 1.5C6.20334 1.5 1.5041 6.19727 1.5 11.9929V20.1185C1.50312 21.4344 2.57043 22.4998 3.88719 22.4998H12.0041C17.8013 22.4975 22.5 17.7979 22.5 12.0003Z" fill="#294172"/>
<path id="vector_2" d="M15.0826 3.98608C12.3666 3.98608 10.157 6.1956 10.157 8.91165V11.526H7.5535C4.83752 11.526 2.62793 13.7357 2.62793 16.4516C2.62793 19.1675 4.83752 21.3772 7.5535 21.3772C10.2695 21.3772 12.4791 19.1675 12.4791 16.4516V13.8372H15.0826C17.7985 13.8372 20.0082 11.6276 20.0082 8.91165C20.0082 6.1956 17.7985 3.98608 15.0826 3.98608ZM10.1752 16.4516C10.1752 17.8972 8.99913 19.0733 7.5535 19.0733C6.10786 19.0733 4.93178 17.8972 4.93178 16.4516C4.93178 15.006 6.10786 13.8299 7.5535 13.8299H10.157V13.8372H10.1752V16.4516ZM15.0826 11.5334H12.4791V11.526H12.4609V8.91165C12.4609 7.46601 13.637 6.28993 15.0826 6.28993C16.5281 6.28993 17.7043 7.46601 17.7043 8.91165C17.7043 10.3573 16.5281 11.5334 15.0826 11.5334Z" fill="#3C6EB4"/>
<path id="vector_3" d="M16.1714 4.13552C15.7892 4.03561 15.4956 3.98901 15.0828 3.98901C12.3612 3.98901 10.1548 6.19557 10.1548 8.91696V11.529H8.09085C7.44731 11.529 6.92723 12.0347 6.92764 12.6771C6.92764 13.3155 7.44198 13.8233 8.07871 13.8233L9.7875 13.8237C9.99036 13.8237 10.1549 13.9877 10.1549 14.1903V16.4505C10.1524 17.8853 8.98852 19.0475 7.55371 19.0475C7.06767 19.0475 6.94733 18.9838 6.61552 18.9838C5.9185 18.9838 5.45215 19.4511 5.45215 20.0936C5.45231 20.625 5.90775 21.0819 6.46507 21.2278C6.84734 21.3277 7.14084 21.3744 7.55371 21.3744C10.2753 21.3744 12.4817 19.1678 12.4817 16.4464V13.8344H14.5456C15.1892 13.8344 15.7093 13.3287 15.7088 12.6863C15.7088 12.0478 15.1945 11.5401 14.5578 11.5401L12.849 11.5397C12.7516 11.5398 12.6583 11.5013 12.5894 11.4325C12.5204 11.3637 12.4817 11.2704 12.4816 11.1731V8.91286C12.4841 7.47805 13.648 6.31583 15.0828 6.31583C15.5688 6.31583 15.6892 6.37957 16.021 6.37957C16.718 6.37957 17.1843 5.91224 17.1843 5.26985C17.1842 4.73829 16.7287 4.28137 16.1714 4.13552Z" fill="white"/>
</g>
</svg>
