<svg width="14" height="22" viewBox="0 0 14 22" fill="none" xmlns="http://www.w3.org/2000/svg">
<g id="figma">
<path id="vector" fill-rule="evenodd" clip-rule="evenodd" d="M7 11C7 9.13604 8.51104 7.625 10.375 7.625C12.239 7.625 13.75 9.13604 13.75 11C13.75 12.864 12.239 14.375 10.375 14.375C8.51104 14.375 7 12.864 7 11Z" fill="#1ABCFE"/>
<path id="vector_2" fill-rule="evenodd" clip-rule="evenodd" d="M0.25 17.75C0.25 15.886 1.76104 14.375 3.625 14.375H7V17.75C7 19.614 5.48896 21.125 3.625 21.125C1.76104 21.125 0.25 19.614 0.25 17.75Z" fill="#0ACF83"/>
<path id="vector_3" fill-rule="evenodd" clip-rule="evenodd" d="M7 0.875V7.625H10.375C12.239 7.625 13.75 6.11396 13.75 4.25C13.75 2.38604 12.239 0.875 10.375 0.875H7Z" fill="#FF7262"/>
<path id="vector_4" fill-rule="evenodd" clip-rule="evenodd" d="M0.25 4.25C0.25 6.11396 1.76104 7.625 3.625 7.625H7V0.875H3.625C1.76104 0.875 0.25 2.38604 0.25 4.25Z" fill="#F24E1E"/>
<path id="vector_5" fill-rule="evenodd" clip-rule="evenodd" d="M0.25 11C0.25 12.864 1.76104 14.375 3.625 14.375H7V7.625H3.625C1.76104 7.625 0.25 9.13604 0.25 11Z" fill="#A259FF"/>
</g>
</svg>
