<svg width="24" height="24" viewBox="0 0 24 24" fill="none" xmlns="http://www.w3.org/2000/svg">
<g id="freebsd">
<path id="bg" d="M22.5 12C22.5 17.796 17.8012 22.5 12 22.5C6.19875 22.5 1.5 17.796 1.5 12C1.5 6.19875 6.19875 1.5 12 1.5C17.8012 1.5 22.5 6.19875 22.5 12Z" fill="white"/>
<path id="freebsd_2" d="M18.5954 5.48041C19.311 6.20691 17.3271 9.40035 16.9918 9.74116C16.6564 10.0813 15.8045 9.76836 15.0892 9.04169C14.3736 8.31519 14.0653 7.44981 14.4007 7.10917C14.7359 6.76836 17.8799 4.75357 18.5954 5.48041Z" fill="#B5010F"/>
<g id="Subtract">
<path d="M8.56039 6.24908C7.46787 5.61947 5.91329 4.91915 5.41875 5.42144C4.91768 5.9302 5.63246 7.54468 6.25888 8.65635C6.81635 7.67199 7.60929 6.84334 8.56039 6.24908Z" fill="#B5010F"/>
<path d="M13.0833 6.3333C13.4166 6 14.1956 6.12726 14.1956 6.12726L14.278 5.90927C14.278 5.90927 13.5 5.55471 12.1718 5.55471C8.58415 5.55471 5.67564 8.5083 5.67564 12.1525C5.67564 15.7961 8.58415 18.75 12.1718 18.75C15.7595 18.75 18.6678 15.7961 18.6678 12.1525C18.6678 11.2436 18.4864 10.3785 18.1591 9.59091C17.9975 10.1335 17.8732 10.326 17.4746 10.7246C16.8763 11.3229 15.4083 10.8249 14.1956 9.61224C12.983 8.39962 12.485 6.93159 13.0833 6.3333Z" fill="#B5010F"/>
</g>
</g>
</svg>
