<svg width="24" height="24" viewBox="0 0 24 24" fill="none" xmlns="http://www.w3.org/2000/svg">
<g id="git">
<path id="bg" d="M1.93902 13.0599C1.35366 12.4745 1.35366 11.5255 1.93902 10.9401L10.9401 1.93902C11.5255 1.35366 12.4745 1.35366 13.0599 1.93902L22.061 10.9401C22.6463 11.5255 22.6463 12.4745 22.061 13.0599L13.0599 22.061C12.4745 22.6463 11.5255 22.6463 10.9401 22.061L1.93902 13.0599Z" fill="#EE513B"/>
<path id="git_2" d="M9.11219 3.79614L8.20068 4.70765L10.5549 7.06183C10.4596 7.26614 10.4065 7.49401 10.4065 7.73429C10.4065 8.41648 10.8351 8.99857 11.4377 9.22593V14.9848C10.8351 15.2122 10.4065 15.7943 10.4065 16.4765C10.4065 17.3567 11.12 18.0702 12.0002 18.0702C12.8804 18.0702 13.594 17.3567 13.594 16.4765C13.594 15.858 13.2417 15.3218 12.7268 15.0576V9.23374L14.9772 11.4841C14.8866 11.6843 14.8362 11.9065 14.8362 12.1405C14.8362 13.0207 15.5497 13.7343 16.4299 13.7343C17.3101 13.7343 18.0237 13.0207 18.0237 12.1405C18.0237 11.2603 17.3101 10.5468 16.4299 10.5468C16.2589 10.5468 16.0941 10.5737 15.9397 10.6236L13.5228 8.20673C13.569 8.05745 13.594 7.89878 13.594 7.73429C13.594 6.85408 12.8804 6.14054 12.0002 6.14054C11.8357 6.14054 11.6771 6.16546 11.5278 6.21173L9.11219 3.79614Z" fill="white"/>
</g>
</svg>
