<svg width="24" height="24" viewBox="0 0 24 24" fill="none" xmlns="http://www.w3.org/2000/svg">
<g id="gitlab">
<path id="Vector" d="M12.0062 22.2489L16.1462 9.50732H7.86621L12.0062 22.2489Z" fill="#E24329"/>
<path id="Vector_2" d="M12.0066 22.2489L7.86656 9.50732H2.06445L12.0066 22.2489Z" fill="#FC6D26"/>
<path id="Vector_3" d="M2.06425 9.50732L0.806175 13.3794C0.691425 13.7325 0.817103 14.1194 1.11753 14.3376L12.0063 22.2489L2.06425 9.50732Z" fill="#FCA326"/>
<path id="Vector_4" d="M2.06445 9.50713H7.86656L5.37302 1.83302C5.24477 1.43809 4.68613 1.4382 4.55788 1.83302L2.06445 9.50713Z" fill="#E24329"/>
<path id="Vector_5" d="M12.0073 22.2489L16.1473 9.50732H21.9494L12.0073 22.2489Z" fill="#FC6D26"/>
<path id="Vector_6" d="M21.9494 9.50732L23.2075 13.3794C23.3223 13.7325 23.1966 14.1194 22.8961 14.3376L12.0073 22.2489L21.9494 9.50732Z" fill="#FCA326"/>
<path id="Vector_7" d="M21.9486 9.50713H16.1465L18.64 1.83302C18.7683 1.43809 19.3269 1.4382 19.4552 1.83302L21.9486 9.50713Z" fill="#E24329"/>
</g>
</svg>
