<svg width="18" height="13" viewBox="0 0 18 13" fill="none" xmlns="http://www.w3.org/2000/svg">
<g id="gmail">
<path id="Vector" d="M13.5384 1.39209L9.04807 4.89641L4.45508 1.39209V1.39304L4.46063 1.39777V6.30476L8.99628 9.88485L13.5384 6.44304V1.39209Z" fill="#EA4335"/>
<path id="Vector_2" d="M14.7178 0.539789L13.5386 1.39219V6.44314L17.2492 3.59423V1.87806C17.2492 1.87806 16.7988 -0.573068 14.7178 0.539789Z" fill="#FBBC05"/>
<path id="Vector_3" d="M13.5386 6.44315V12.9943H16.3826C16.3826 12.9943 17.1919 12.911 17.2501 11.9885V3.59424L13.5386 6.44315Z" fill="#34A853"/>
<path id="Vector_4" d="M4.46084 12.9999V6.30478L4.45508 6.30005L4.46084 12.9999Z" fill="#C5221F"/>
<path id="Vector_5" d="M4.4551 1.39315L3.28234 0.54549C1.20135 -0.567367 0.75 1.88281 0.75 1.88281V3.59898L4.4551 6.30014V1.39315Z" fill="#C5221F"/>
<path id="Vector_6" d="M4.45508 1.39307V6.30006L4.46084 6.30479V1.3978L4.45508 1.39307Z" fill="#C5221F"/>
<path id="Vector_7" d="M0.75 3.59985V11.9941C0.807343 12.9175 1.61754 12.9999 1.61754 12.9999H4.46158L4.4551 6.30007L0.75 3.59985Z" fill="#4285F4"/>
</g>
</svg>
