<svg width="24" height="24" viewBox="0 0 24 24" fill="none" xmlns="http://www.w3.org/2000/svg">
<g id="gnome">
<path id="gnome_2" fill-rule="evenodd" clip-rule="evenodd" d="M7.44221 14.3697C7.58245 15.5765 7.78261 16.4877 8.21795 17.5622C8.65313 18.6364 9.61296 20.0725 10.7839 20.9271C11.9548 21.7814 13.8647 22.5794 15.1557 22.4937C16.4468 22.4083 17.0222 21.9312 17.6161 21.3269C18.2097 20.7227 19.5445 18.8834 20.0097 17.1659C20.4752 15.4487 20.1848 14.846 19.8102 14.3477C19.4359 13.8494 18.5912 13.5111 17.4385 13.5992C16.2857 13.6872 15.0404 14.4024 14.9696 14.9934C14.86 15.9069 16.5612 16.0331 16.2857 16.8356C16.175 17.1587 15.7627 17.4189 14.668 17.3859C13.5734 17.3532 12.3752 16.8215 12.0966 15.977C11.8181 15.1324 11.9399 14.3564 12.5313 13.9469C15.0295 12.2175 15.8631 10.7929 16.0269 10.1451C16.1908 9.49728 15.9344 8.73777 15.2862 8.15552C13.8944 6.90519 11.0955 7.46398 9.73826 8.42582C7.72381 9.85375 7.17169 12.0426 7.44221 14.3697ZM10.7288 2.56317C10.4957 3.08877 10.1885 4.1864 10.4984 5.09176C10.8085 5.99712 11.9813 7.02215 13.2713 6.78296C14.5611 6.54362 14.5215 4.53042 14.2687 3.65697C14.0399 2.86729 12.8888 1.56781 12.0846 1.50463C11.2804 1.44144 10.962 2.03725 10.7288 2.56317ZM6.94117 5.6689C7.69634 6.77387 8.87738 6.94651 9.4769 6.74227C10.0764 6.53787 9.8173 4.86901 9.45618 4.10247C9.00493 3.14509 7.95289 3.05717 7.34068 3.36912C6.72848 3.68074 6.18615 4.56392 6.94117 5.6689ZM5.00222 6.45905C4.20415 6.73462 4.43467 8.38753 4.89652 9.04413C5.3582 9.70073 6.73876 10.0647 7.2708 9.47239C7.80301 8.8801 7.14036 7.70875 6.82053 7.32978C6.50069 6.9505 5.80029 6.18349 5.00222 6.45905ZM3.81685 10.5914C4.04319 10.0749 5.08543 10.1264 5.86728 10.5761C6.85265 11.143 6.89265 12.5652 6.31177 12.7972C5.84206 12.9848 5.00961 12.8634 4.48977 12.4516C3.96994 12.0398 3.5905 11.1078 3.81685 10.5914Z" fill="black"/>
</g>
</svg>
