<svg width="24" height="24" viewBox="0 0 24 24" fill="none" xmlns="http://www.w3.org/2000/svg">
<g id="go">
<g id="gp">
<path fill-rule="evenodd" clip-rule="evenodd" d="M13.5883 10.5334C13.3056 10.6125 13.019 10.6927 12.6872 10.7829C12.525 10.8288 12.4882 10.8392 12.3374 10.6558C12.1564 10.4398 12.0237 10.3 11.7704 10.173C11.0105 9.77907 10.2747 9.89343 9.58719 10.3636C8.76696 10.9227 8.34478 11.7486 8.35685 12.7778C8.36891 13.7943 9.03233 14.6329 9.98524 14.7727C10.8055 14.8871 11.493 14.5821 12.0358 13.9341C12.1443 13.7944 12.2409 13.6417 12.3615 13.464H10.0335C9.78018 13.464 9.71987 13.2988 9.80431 13.0828C9.96111 12.6889 10.2506 12.0281 10.4195 11.6977C10.4557 11.6215 10.5401 11.4944 10.721 11.4944H14.6027C14.777 10.9124 15.0599 10.3625 15.4373 9.84217C16.3179 8.62235 17.3793 7.98703 18.8147 7.72019C20.0451 7.49147 21.2031 7.61854 22.2525 8.36822C23.2054 9.05437 23.7964 9.98194 23.9532 11.2018C24.1583 12.9171 23.6879 14.3149 22.5661 15.5093C21.77 16.3606 20.7929 16.8943 19.6712 17.1357C19.4572 17.1774 19.2432 17.1972 19.0326 17.2167C18.9227 17.2269 18.8137 17.237 18.7062 17.2501C17.6085 17.2246 16.6074 16.8943 15.763 16.1319C15.1692 15.5912 14.7602 14.9267 14.5569 14.1531C14.4158 14.4532 14.2471 14.7407 14.0502 15.0141C13.1817 16.2213 12.0479 16.9709 10.6125 17.1742C9.43038 17.3394 8.33272 17.098 7.36775 16.3356C6.47515 15.6241 5.96854 14.6838 5.83585 13.5148C5.67905 12.1298 6.06504 10.8845 6.86114 9.79177C7.71755 8.61007 8.85139 7.86039 10.2385 7.59355C11.3724 7.37754 12.458 7.51731 13.435 8.21617C14.0743 8.6609 14.5327 9.27081 14.8342 10.0078C14.9066 10.1221 14.8584 10.1857 14.7136 10.2238C14.2909 10.3369 13.9427 10.4343 13.5883 10.5334ZM21.5686 11.9807C21.571 12.0234 21.5735 12.0684 21.577 12.1166C21.5167 13.2094 20.998 14.0226 20.0451 14.5436C19.4058 14.8867 18.7424 14.9248 18.0789 14.6198C17.2105 14.2132 16.7521 13.2094 16.9692 12.2183C17.2346 11.0239 17.9583 10.2742 19.0801 10.0074C20.226 9.72781 21.3237 10.4394 21.5408 11.6973C21.5579 11.7873 21.5629 11.8772 21.5686 11.9807Z" fill="#00ACD7"/>
<path d="M1.83345 10.389C1.80933 10.4271 1.82139 10.4526 1.86964 10.4526L5.46195 10.4653C5.49814 10.4653 5.55845 10.4271 5.58257 10.389L5.78763 10.0587C5.81175 10.0205 5.79969 9.98242 5.75144 9.98242H2.21944C2.1712 9.98242 2.11088 10.0078 2.08676 10.046L1.83345 10.389Z" fill="#00ACD7"/>
<path d="M0.0120622 11.558C-0.0120622 11.5961 5.58794e-09 11.6215 0.0482487 11.6215L4.97946 11.6088C5.02771 11.6088 5.07595 11.5834 5.08802 11.5326L5.18451 11.2276C5.19658 11.1895 5.17245 11.1514 5.1242 11.1514H0.398051C0.349803 11.1514 0.289492 11.1768 0.265368 11.2149L0.0120622 11.558Z" fill="#00ACD7"/>
<path d="M2.9311 12.7143C2.90697 12.7524 2.91903 12.7905 2.96728 12.7905L4.82264 12.8033C4.85883 12.8033 4.90707 12.7651 4.90707 12.7143L4.9312 12.4093C4.9312 12.3585 4.90707 12.3204 4.85883 12.3204H3.22059C3.17234 12.3204 3.12409 12.3585 3.09997 12.3966L2.9311 12.7143Z" fill="#00ACD7"/>
</g>
</g>
</svg>
