<svg width="24" height="24" viewBox="0 0 24 24" fill="none" xmlns="http://www.w3.org/2000/svg">
<g id="google_hangouts" clip-path="url(#clip0_7113_46553)">
<circle id="bg" cx="16" cy="16" r="14" fill="#0F9D58"/>
<path id="google_hangouts_2" fill-rule="evenodd" clip-rule="evenodd" d="M11.9973 5.25C15.7235 5.25 18.75 8.27121 18.75 11.9973C18.75 15.45 16.0972 18.9208 11.9973 21V18.375C8.46741 18.375 5.25 15.5273 5.25 11.9973C5.25 8.27121 8.27121 5.25 11.9973 5.25ZM8.25 12.75V9.75H11.25V12.75C11.25 13.65 10.5247 14.25 9.75 14.25V12.75H8.25ZM12.75 12.75V9.75H15.75V12.75C15.75 13.65 15.0247 14.25 14.25 14.25V12.75H12.75Z" fill="white"/>
</g>
<defs>
<clipPath id="clip0_7113_46553">
<rect width="24" height="24" fill="white"/>
</clipPath>
</defs>
</svg>
