<svg width="24" height="24" viewBox="0 0 24 24" fill="none" xmlns="http://www.w3.org/2000/svg">
<g id="iconjar">
<path id="Vector" fill-rule="evenodd" clip-rule="evenodd" d="M19.3841 10.5408C20.492 11.2469 20.9075 12.5178 20.7229 13.6946L19.4302 20.8023C19.1532 22.2144 17.9529 23.25 16.5217 23.25H7.47313C6.04197 23.25 4.84164 22.2144 4.56466 20.8023L3.27199 13.6946C3.08732 12.5648 3.549 11.2939 4.65699 10.5879C5.30332 10.1172 5.44182 9.31696 4.65699 9.03452C3.549 8.61087 3.77982 7.24581 4.88783 7.24581H11.6281C12.6899 7.24581 13.9826 8.04603 13.9826 10.6349C13.9826 13.2239 12.7823 12.9885 12.7823 14.8243C12.7823 15.6245 13.4286 16.4717 14.2134 16.5659C15.5523 16.7071 16.3371 16.1893 16.3371 14.3065C16.3371 12.3766 15.2291 11.4822 15.2291 9.88179C15.2291 7.95186 16.4294 7.19873 17.2143 7.19873H19.1532C20.2612 7.19873 20.4921 8.56378 19.3841 8.98743C18.5992 9.31694 18.7377 10.1172 19.3841 10.5408ZM5.58031 6.25733C5.11865 6.25733 4.70314 5.83368 4.70314 5.36297C4.70314 4.28033 7.3808 3.48012 10.4278 3.48012C10.7048 3.48012 10.8894 3.48012 10.8894 3.24477C10.8894 2.82113 9.96612 2.67992 9.96612 1.97386C9.96612 1.22072 10.8433 0.75 11.9513 0.75C13.0593 0.75 13.9364 1.22072 13.9364 1.97386C13.9364 2.67992 13.0131 2.77407 13.0131 3.24477C13.0131 3.38599 13.1516 3.48012 13.4748 3.48012C16.5217 3.48012 19.2456 4.23326 19.2456 5.36297C19.2456 5.83368 18.8762 6.25733 18.3684 6.25733H5.58031Z" fill="#2CACF4"/>
</g>
</svg>
