<svg width="22" height="22" viewBox="0 0 22 22" fill="none" xmlns="http://www.w3.org/2000/svg">
<g id="photoshop">
<rect id="frame" x="0.5" y="0.5" width="21" height="21" fill="#32CAFA"/>
<rect id="bg" x="1.25" y="1.25" width="19.5" height="19.5" fill="#021D25"/>
<path id="photoshop_2" d="M5 5.90695C5 5.84462 5.13454 5.79675 5.21238 5.79675C5.82394 5.76558 6.72128 5.75 7.66308 5.75C10.2973 5.75 11.3236 7.19482 11.3236 9.04593C11.3236 11.4636 9.57228 12.4999 7.42402 12.4999C7.06375 12.4999 6.9381 12.4843 6.68681 12.4843V16.1398C6.68681 16.2188 6.65567 16.25 6.57672 16.25H5.11008C5.03113 16.25 5 16.2188 5 16.1398V5.90695ZM6.68681 10.9616C6.90586 10.9772 7.07932 10.9772 7.45515 10.9772C8.5682 10.9772 9.61453 10.5843 9.61453 9.07821C9.61453 7.86937 8.86731 7.25716 7.59637 7.25716C7.22053 7.25716 6.85916 7.27274 6.68681 7.28832V10.9616ZM14.8673 9.83067C14.1145 9.83067 13.8632 10.208 13.8632 10.5219C13.8632 10.867 14.0356 11.103 15.0397 11.6206C16.5297 12.343 17 13.0331 17 14.0538C17 15.5766 15.8391 16.25 14.2713 16.25C13.4407 16.25 12.7324 16.0819 12.3254 15.8459C12.2632 15.8147 12.2465 15.768 12.2465 15.6889V14.4301C12.2465 14.3354 12.2932 14.3043 12.3566 14.351C12.9526 14.744 13.6442 14.9165 14.2713 14.9165C15.0241 14.9165 15.3377 14.6026 15.3377 14.1785C15.3377 13.8334 15.1186 13.5351 14.1612 13.0331C12.8125 12.3897 12.2476 11.7296 12.2476 10.631C12.2476 9.40658 13.2039 8.48353 14.8662 8.48353C15.6812 8.48353 16.2572 8.51164 16.5708 8.653C16.6497 8.69975 16.6653 8.77878 16.6653 8.84112V10.1446C16.6653 10.2225 16.6186 10.2704 16.5241 10.2392C16.2217 10.0596 15.6201 9.83067 14.8673 9.83067Z" fill="#32CAFA"/>
</g>
</svg>
