<svg width="24" height="24" viewBox="0 0 24 24" fill="none" xmlns="http://www.w3.org/2000/svg">
<g id="pinterest">
<circle id="bg" cx="12" cy="12" r="10.5" fill="white"/>
<path id="pin" d="M12 22.5C17.799 22.5 22.5 17.799 22.5 12C22.5 6.20101 17.799 1.5 12 1.5C6.20101 1.5 1.5 6.20101 1.5 12C1.5 16.2601 4.03702 19.9276 7.68261 21.5742C7.6875 21.4605 7.69301 21.3564 7.69773 21.2671C7.70416 21.1453 7.70914 21.0511 7.70914 20.9982C7.70914 20.6827 7.92368 19.1178 7.92368 19.1178L9.23618 13.729C9.03426 13.4008 8.88281 12.7067 8.88281 12.1767C8.88281 9.72836 10.2458 9.19831 11.0787 9.19831C12.1388 9.19831 12.3786 10.3467 12.3786 11.1923C12.3786 11.6396 12.1466 12.3396 11.9079 13.06C11.6548 13.8236 11.3942 14.61 11.3942 15.1424C11.3942 16.1773 12.4165 16.6947 13.1232 16.6947C14.991 16.6947 16.7073 14.3473 16.7073 12C16.7073 9.65264 15.6094 6.81309 12.0126 6.81309C8.41587 6.81309 6.80048 9.55167 6.80048 11.6466C6.80048 13.0601 7.33053 14.0949 7.59556 14.2716C7.67128 14.3389 7.8 14.5467 7.70914 14.8395C7.61827 15.1323 7.45253 15.786 7.38101 16.0763C7.3726 16.1436 7.29267 16.258 7.04027 16.1773C6.72476 16.0763 4.71815 14.8143 4.71815 11.6466C4.71815 8.47896 7.20433 4.79386 12.0126 4.79386C16.8209 4.79386 19.2819 8.02463 19.2819 12C19.2819 15.9754 16.0637 18.512 13.6154 18.512C11.6567 18.512 10.8894 17.637 10.7506 17.1995L10.006 20.0391C9.8302 20.5101 9.50222 21.3568 9.09778 22.0938C10.0195 22.3583 10.9932 22.5 12 22.5Z" fill="#BB0F23"/>
</g>
</svg>
