<svg width="24" height="24" viewBox="0 0 24 24" fill="none" xmlns="http://www.w3.org/2000/svg">
<g id="quora">
<path id="quora_2" fill-rule="evenodd" clip-rule="evenodd" d="M14.1562 20.6543C13.351 20.8796 12.5021 21 11.625 21C6.44733 21 2.25 16.8027 2.25 11.625C2.25 6.44733 6.44733 2.25 11.625 2.25C16.8027 2.25 21 6.44733 21 11.625C21 14.5831 19.63 17.2211 17.4899 18.9393C18.0794 19.6836 18.7634 20.2599 19.5111 20.2599C20.7443 20.2599 21.1154 19.2673 21.1468 18.7711H22.5C22.5 21.3982 20.9291 23.1594 18.3465 23.2432C17.4362 23.2727 15.911 23.3222 14.1562 20.6543ZM13.331 19.2193C12.8364 19.4023 12.2706 19.5 11.625 19.5C7.74677 19.5 6.75 15.9742 6.75 11.625C6.75 7.27576 7.74767 3.75 11.625 3.75C15.5023 3.75 16.5 7.27576 16.5 11.625C16.5 13.3902 16.3358 15.0197 15.8814 16.333C15.1467 15.0407 13.9876 13.5 11.8507 13.5C10.0716 13.5 8.70892 14.2284 8.25 14.5926L8.81482 15.7213C8.97172 15.6693 9.36788 15.5652 9.69736 15.5652C10.1092 15.5652 11.5683 15.4331 12.9804 18.4949C13.0979 18.7497 13.2148 18.9909 13.331 19.2193Z" fill="#B72D2C"/>
</g>
</svg>
