<svg width="22" height="18" viewBox="0 0 22 18" fill="none" xmlns="http://www.w3.org/2000/svg">
<g id="sketch">
<path id="vector" fill-rule="evenodd" clip-rule="evenodd" d="M5.08181 0.592632L11 0L16.9181 0.592632L21.5 6.4185L11 17.9999L0.5 6.4185L5.08181 0.592632Z" fill="#FDB300"/>
<path id="vector_2" d="M4.75297 6.41846L10.9999 18L0.5 6.41846H4.75297ZM17.247 6.41846L11.0001 18L21.5 6.41846" fill="#EA6C00"/>
<path id="vector_3" fill-rule="evenodd" clip-rule="evenodd" d="M4.75293 6.41846H17.2468L10.9999 18" fill="#FDAD00"/>
<path id="vector_4" d="M10.9999 0L5.08172 0.592533L4.75293 6.41844L10.9999 0ZM11 0L16.9182 0.592533L17.2469 6.41844" fill="#FDD231"/>
<path id="vector_5" d="M21.5 6.41844L16.9182 0.592529L17.247 6.41844H21.5ZM0.5 6.41844L5.08176 0.592529L4.75297 6.41844" fill="#FDAD00"/>
<path id="vector_6" fill-rule="evenodd" clip-rule="evenodd" d="M10.9999 0L4.75293 6.41844H17.2468" fill="#FEEEB7"/>
</g>
</svg>
