<svg width="20" height="20" viewBox="0 0 20 20" fill="none" xmlns="http://www.w3.org/2000/svg">
<g id="slack">
<path id="vector" d="M17.8752 9.24992C18.9106 9.24992 19.75 8.41053 19.75 7.37508C19.75 6.33964 18.9105 5.50025 17.8751 5.50025C16.8395 5.50025 16 6.33971 16 7.37525V9.24992H17.8752ZM12.625 9.24992C13.6605 9.24992 14.5 8.41046 14.5 7.37492V2.12525C14.5 1.08971 13.6605 0.250244 12.625 0.250244C11.5895 0.250244 10.75 1.08971 10.75 2.12524V7.37492C10.75 8.41045 11.5895 9.24992 12.625 9.24992Z" fill="#2EB67D"/>
<path id="vector_2" d="M2.12484 10.7501C1.08939 10.7501 0.250001 11.5895 0.250001 12.6249C0.250001 13.6604 1.08947 14.4998 2.12492 14.4998C3.16045 14.4998 4 13.6603 4 12.6248V10.7501H2.12484ZM7.375 10.7501C6.33947 10.7501 5.5 11.5895 5.5 12.6251V17.8748C5.5 18.9103 6.33947 19.7498 7.375 19.7498C8.41053 19.7498 9.25 18.9103 9.25 17.8748V12.6251C9.25 11.5895 8.41053 10.7501 7.375 10.7501Z" fill="#E01E5A"/>
<path id="vector_3" d="M10.7503 17.8752C10.7503 18.9106 11.5897 19.75 12.6252 19.75C13.6606 19.75 14.5 18.9105 14.5 17.8751C14.5 16.8395 13.6605 16 12.625 16L10.7503 16L10.7503 17.8752ZM10.7503 12.625C10.7503 13.6605 11.5898 14.5 12.6253 14.5L17.875 14.5C18.9105 14.5 19.75 13.6605 19.75 12.625C19.75 11.5895 18.9105 10.75 17.875 10.75L12.6253 10.75C11.5898 10.75 10.7503 11.5895 10.7503 12.625Z" fill="#ECB22E"/>
<path id="vector_4" d="M9.24968 2.12484C9.24968 1.08939 8.41029 0.25 7.37484 0.25C6.3394 0.25 5.5 1.08947 5.5 2.12492C5.5 3.16045 6.33947 4 7.375 4L9.24968 4L9.24968 2.12484ZM9.24968 7.375C9.24968 6.33947 8.41021 5.5 7.37468 5.5L2.125 5.5C1.08947 5.5 0.25 6.33947 0.25 7.375C0.25 8.41053 1.08947 9.25 2.125 9.25L7.37468 9.25C8.41021 9.25 9.24968 8.41053 9.24968 7.375Z" fill="#36C5F0"/>
</g>
</svg>
