<svg width="24" height="24" viewBox="0 0 24 24" fill="none" xmlns="http://www.w3.org/2000/svg">
<g id="workflowy">
<path id="bg" d="M1.5 3.76775C1.5 2.51531 2.51531 1.5 3.76775 1.5H20.2322C21.4847 1.5 22.5 2.51531 22.5 3.76775V20.2322C22.5 21.4847 21.4847 22.5 20.2322 22.5H3.76775C2.51531 22.5 1.5 21.4847 1.5 20.2322V3.76775Z" fill="#558AAD"/>
<path id="vector" d="M9.24889 8.83144C8.94119 9.28158 8.42378 9.577 7.83737 9.577C7.55779 9.577 7.29389 9.50985 7.06092 9.3908L9.32352 11.6534C9.51758 10.9229 10.1834 10.3847 10.9749 10.3847C11.5614 10.3847 12.0788 10.6801 12.3865 11.1303H17.0016C17.5334 11.1303 17.9646 11.5614 17.9646 12.0933C17.9646 12.6251 17.5334 13.0563 17.0016 13.0563H12.3865C12.0788 13.5064 11.5614 13.8019 10.9749 13.8019C10.7193 13.8019 10.4767 13.7457 10.259 13.6451L11.969 15.3551H17.0016C17.5334 15.3551 17.9646 15.7863 17.9646 16.3181C17.9646 16.85 17.5334 17.2811 17.0016 17.2811H9.24889C8.94119 17.7313 8.42378 18.0267 7.83737 18.0267C7.54802 18.0267 7.27547 17.9548 7.03662 17.8278L11.8849 22.5001H20.2323C21.4848 22.5001 22.5001 21.4848 22.5001 20.2323V12.0001L17.5918 7.0918L17.5747 7.09447C17.8113 7.26994 17.9646 7.55128 17.9646 7.86842C17.9646 8.40028 17.5334 8.83144 17.0016 8.83144H9.24889Z" fill="#4C7B9B"/>
<rect id="vector_2" x="6.71875" y="15.355" width="11.2456" height="1.92603" rx="0.963017" fill="#A1BED2"/>
<rect id="vector_3" x="9.5459" y="11.1301" width="8.41864" height="1.92604" rx="0.963018" fill="#A1BED2"/>
<rect id="vector_4" x="6.71875" y="6.90527" width="11.2456" height="1.92604" rx="0.963018" fill="#A1BED2"/>
<path id="vector_5" d="M9.24902 8.83124C9.43646 8.55704 9.54608 8.22543 9.54608 7.86822C9.54608 7.52867 9.44703 7.21225 9.27625 6.94629L11.2236 8.83124H9.24902Z" fill="#98B3C6"/>
<path id="vector_6" d="M12.3862 13.0561C12.5737 12.7819 12.6833 12.4503 12.6833 12.0931C12.6833 11.7841 12.6013 11.4942 12.4578 11.2441L14.3297 13.0561H12.3862Z" fill="#98B3C6"/>
<path id="vector_7" d="M9.24902 17.2812C9.43646 17.007 9.54608 16.6754 9.54608 16.3182C9.54608 15.9786 9.44703 15.6622 9.27625 15.3962L11.2236 17.2812H9.24902Z" fill="#98B3C6"/>
<ellipse id="vector_8" cx="7.83749" cy="7.86825" rx="1.70858" ry="1.70858" fill="white"/>
<circle id="vector_9" cx="10.9747" cy="12.0933" r="1.70858" fill="white"/>
<ellipse id="vector_10" cx="7.83749" cy="16.318" rx="1.70858" ry="1.70858" fill="white"/>
</g>
</svg>
