<svg width="21" height="21" viewBox="0 0 21 21" fill="none" xmlns="http://www.w3.org/2000/svg">
<path d="M10.4982 11.3742C10.9814 11.3742 11.3731 10.9825 11.3731 10.4993C11.3731 10.0161 10.9814 9.62434 10.4982 9.62434C10.0149 9.62434 9.62323 10.0161 9.62323 10.4993C9.62323 10.9825 10.0149 11.3742 10.4982 11.3742Z" stroke="white" stroke-width="1.71537" stroke-linecap="round" stroke-linejoin="round"/>
<path d="M16.6227 11.3742C17.1059 11.3742 17.4977 10.9825 17.4977 10.4993C17.4977 10.0161 17.1059 9.62434 16.6227 9.62434C16.1395 9.62434 15.7478 10.0161 15.7478 10.4993C15.7478 10.9825 16.1395 11.3742 16.6227 11.3742Z" stroke="white" stroke-width="1.71537" stroke-linecap="round" stroke-linejoin="round"/>
<path d="M4.37361 11.3742C4.85682 11.3742 5.24854 10.9825 5.24854 10.4993C5.24854 10.0161 4.85682 9.62434 4.37361 9.62434C3.89039 9.62434 3.49867 10.0161 3.49867 10.4993C3.49867 10.9825 3.89039 11.3742 4.37361 11.3742Z" stroke="white" stroke-width="1.71537" stroke-linecap="round" stroke-linejoin="round"/>
</svg>
