<svg width="21" height="21" viewBox="0 0 21 21" fill="none" xmlns="http://www.w3.org/2000/svg">
<path d="M8.74883 6.99954V6.1246M8.74883 10.9368V10.0618M8.74883 14.874V13.999M4.54913 3.49979H16.4483C17.4283 3.49979 17.9183 3.49979 18.2926 3.69052C18.6219 3.85828 18.8896 4.12598 19.0573 4.45524C19.2481 4.82956 19.2481 5.31957 19.2481 6.29959V7.43701C17.5568 7.43701 16.1858 8.80803 16.1858 10.4993C16.1858 12.1905 17.5568 13.5616 19.2481 13.5616V14.699C19.2481 15.679 19.2481 16.169 19.0573 16.5433C18.8896 16.8726 18.6219 17.1403 18.2926 17.3081C17.9183 17.4988 17.4283 17.4988 16.4483 17.4988H4.54913C3.56911 17.4988 3.0791 17.4988 2.70478 17.3081C2.37552 17.1403 2.10783 16.8726 1.94006 16.5433C1.74934 16.169 1.74934 15.679 1.74934 14.699V13.5616C3.44059 13.5616 4.81161 12.1905 4.81161 10.4993C4.81161 8.80803 3.44059 7.43701 1.74934 7.43701V6.29959C1.74934 5.31957 1.74934 4.82956 1.94006 4.45524C2.10783 4.12598 2.37552 3.85828 2.70478 3.69052C3.0791 3.49979 3.56911 3.49979 4.54913 3.49979Z" stroke="#4761C4" stroke-width="1.71537" stroke-linecap="round" stroke-linejoin="round"/>
</svg>
